<?xml version="1.0" encoding="UTF-8"?>
<svg id="_レイヤー_1" xmlns="http://www.w3.org/2000/svg" version="1.1" viewBox="0 0 1133.9 1133.9">
  <!-- Generator: Adobe Illustrator 30.4.0, SVG Export Plug-In . SVG Version: 2.1.4 Build 226)  -->
  <defs>
    <style>
      .st0 {
        fill: #e3007f;
      }

      .st1 {
        fill: #fdfbf7;
      }
    </style>
  </defs>
  <rect class="st1" width="1133.9" height="1133.9"/>
  <g>
    <path id="_ネコ" data-name="ネコ" class="st0" d="M1044.2,585.8c9.7,101.5-49.2,182-126.6,241.6-29.6,22.7-60.2,42.4-93.1,60.3-60.3,32.9-122.4,60.7-187,84.1-58.8,21.3-124.3,38.4-186.7,39.9-98.5,2.3-178.5-35.1-229-121.8-40.9-70.2-56.3-152.1-44.4-232.2.8-5.2-.3-10-2.6-14.8-31.9-68.4-66.9-150.2-84.5-223-3.3-13.8-1.8-27.3,6-37.6,8.5-11.4,22.1-19.2,36.6-17.9,27.5,2.3,54,7.6,81.1,13.2,36.7,7.7,72.1,17.3,107.7,28.8,3.4,1.1,7.5-.3,10.3-2.5,76.6-62.2,168.6-103.2,266.1-118.3,3.6-.6,7-3.4,8.4-6.3l30.4-62.6c19.1-36,39.2-70.6,63.1-103.6,8.4-11.7,22.3-17.8,37-17.2,12.2.6,24.7,7.3,32.5,18.7,14.3,20.7,26.8,41.3,39,63.7,26.6,48.9,49.7,98.5,71.3,149.7,2.9,7,6.7,10.7,12.7,14.8,62.6,42.2,110.1,103.1,135.9,174.3,8.2,22.8,13.5,45.1,15.8,69h0Z"/>
    <g>
      <g id="_鐘" data-name="鐘">
        <path class="st1" d="M270.6,620.3c-7.7-6.7-12.5-14.4-12-23.9,1-20.5,24.8-30.3,44.1-33.5l33.1-5.5c17-2.8,32.4-9.9,47.5-18.4,25.1-14.1,46-32.8,65.2-54.4l60.4-72.5c9.5-11.4,18.1-22.1,28.2-32.9,30.4-32.4,73.4-49,117.5-47.8,78,2.2,144.5,58.6,158.6,135.6,6.3,34.3,1.5,69.8-15.6,100.5-14.6,26.3-31.4,49.9-47,75.5l-31.2,51.1c-12.7,23.1-22.1,47.1-27.1,72.9-4,20.9-3.9,41,0,61.7,3.7,19.3,7.4,44.3-2.7,60.8-7.6,12.5-24.8,16.8-37.7,7.5l-381.2-276.7h0Z"/>
        <path class="st1" d="M493,819.1c-20.1,27.4-58.2,32.8-85.3,13.8-27.8-19.6-35.2-57.9-15.1-86.7l100.4,72.9Z"/>
      </g>
      <polygon id="_ヒビ" data-name="ヒビ" class="st0" points="640.9 679.2 679.6 695.1 566 838.4 475.6 801.3 596 712.4 554.5 695.3 764.9 587.4 640.9 679.2"/>
    </g>
  </g>
</svg>